<mxfile host="app.diagrams.net" modified="2024-02-13T19:52:04.550Z" agent="Mozilla/5.0 (Windows NT 10.0; Win64; x64) AppleWebKit/537.36 (KHTML, like Gecko) Chrome/121.0.0.0 Safari/537.36" version="23.1.4" etag="9BSizRoEULfxSE7jFPEJ" type="github">
  <diagram name="Page-1" id="KjZiGTyorV1lpP3xP2Da">
    <mxGraphModel>
      <root>
        <mxCell id="0" />
        <mxCell id="1" parent="0" />
      </root>
    </mxGraphModel>
  </diagram>
</mxfile>
